<!-- Generated by IcoMoon.io -->
<svg version="1.1" xmlns="http://www.w3.org/2000/svg" width="768" height="768" viewBox="0 0 768 768">
<title></title>
<g id="icomoon-ignore">
</g>
<path fill="currentColor" d="M384.32 192c83.52 0 156.48 59.52 172.8 141.76l9.6 48 48.64 3.52c49.92 3.52 88.96 45.12 88.96 94.72 0 52.8-43.2 96-96 96h-416c-70.72 0-128-57.28-128-128 0-65.6 48.96-120.32 113.92-127.040l34.24-3.52 16-30.4c30.080-58.56 89.92-95.040 155.84-95.040zM384.32 128c-92.48 0-173.12 52.48-213.12 129.28-96 10.24-170.88 91.84-170.88 190.72 0 105.92 86.080 192 192 192h416c88.32 0 160-71.68 160-160 0-84.48-65.6-152.96-148.48-158.72-22.080-110.4-119.040-193.28-235.52-193.28z"></path>
</svg>
