<!-- Generated by IcoMoon.io -->
<svg version="1.1" xmlns="http://www.w3.org/2000/svg" width="1024" height="1024" viewBox="0 0 1024 1024">
<title></title>
<g id="icomoon-ignore">
</g>
<path fill="currentColor" d="M517.333 561.067q14.933 0 26.133-11.2t11.2-28.267v-196.267q0-14.933-11.733-26.133t-26.667-11.2q-17.067 0-28.267 11.2t-11.2 27.2v196.267q0 16 11.733 27.2t28.8 11.2zM512 733.867q18.133 0 29.333-11.2t11.2-29.333-11.2-29.333-29.333-11.2-29.333 11.2-11.2 29.333 11.2 29.333 29.333 11.2zM512 955.733q-93.867 0-174.933-34.133t-140.8-93.867-93.867-140.8-34.133-174.933 34.133-174.933 93.867-140.8 140.8-93.867 174.933-34.133 174.933 34.133 140.8 93.867 93.867 140.8 34.133 176q0 92.8-34.133 173.867t-93.867 140.8-140.8 93.867-174.933 34.133zM512 877.867q150.4 0 258.133-107.2t107.733-258.667q0-150.4-107.733-258.133t-258.133-107.733q-151.467 0-258.667 107.733t-107.2 258.133q0 151.467 107.2 258.667t258.667 107.2z"></path>
</svg>
