<!-- Generated by IcoMoon.io -->
<svg version="1.1" xmlns="http://www.w3.org/2000/svg" width="768" height="768" viewBox="0 0 768 768">
<title></title>
<g id="icomoon-ignore">
</g>
<path fill="currentColor" d="M384 256c-70.72 0-128 57.28-128 128s57.28 128 128 128 128-57.28 128-128-57.28-128-128-128zM670.080 352c-14.72-133.44-120.64-239.36-254.080-254.080v-65.92h-64v65.92c-133.44 14.72-239.36 120.64-254.080 254.080h-65.92v64h65.92c14.72 133.44 120.64 239.36 254.080 254.080v65.92h64v-65.92c133.44-14.72 239.36-120.64 254.080-254.080h65.92v-64h-65.92zM384 608c-123.84 0-224-100.16-224-224s100.16-224 224-224 224 100.16 224 224-100.16 224-224 224z"></path>
</svg>
