<svg width="101" height="18" viewBox="0 0 101 18" fill="none" xmlns="http://www.w3.org/2000/svg">
<path d="M18.272 4.54H19.064L20.264 7.564L21.476 4.54H22.28L20.792 8.176L22.424 12.028L25.508 4.48H26.42L22.808 13H22.064L20.276 8.788L18.476 13H17.744L14.144 4.48H15.044L18.14 12.028L19.76 8.176L18.272 4.54ZM29.3422 13.12C28.8942 13.12 28.4782 13.036 28.0942 12.868C27.7102 12.692 27.3782 12.456 27.0982 12.16C26.8182 11.856 26.5982 11.508 26.4382 11.116C26.2862 10.724 26.2102 10.304 26.2102 9.856C26.2102 9.272 26.3422 8.736 26.6062 8.248C26.8782 7.76 27.2502 7.372 27.7222 7.084C28.1942 6.788 28.7302 6.64 29.3302 6.64C29.9462 6.64 30.4822 6.788 30.9382 7.084C31.4022 7.38 31.7662 7.772 32.0302 8.26C32.2942 8.74 32.4262 9.268 32.4262 9.844C32.4262 9.908 32.4262 9.972 32.4262 10.036C32.4262 10.092 32.4222 10.136 32.4142 10.168H27.0622C27.1022 10.616 27.2262 11.016 27.4342 11.368C27.6502 11.712 27.9262 11.988 28.2622 12.196C28.6062 12.396 28.9782 12.496 29.3782 12.496C29.7862 12.496 30.1702 12.392 30.5302 12.184C30.8982 11.976 31.1542 11.704 31.2982 11.368L32.0062 11.56C31.8782 11.856 31.6822 12.124 31.4182 12.364C31.1542 12.604 30.8422 12.792 30.4822 12.928C30.1302 13.056 29.7502 13.12 29.3422 13.12ZM27.0382 9.58H31.6582C31.6262 9.124 31.5022 8.724 31.2862 8.38C31.0782 8.036 30.8022 7.768 30.4582 7.576C30.1222 7.376 29.7502 7.276 29.3422 7.276C28.9342 7.276 28.5622 7.376 28.2262 7.576C27.8902 7.768 27.6142 8.04 27.3982 8.392C27.1902 8.736 27.0702 9.132 27.0382 9.58ZM33.1812 11.2C33.1812 10.808 33.2932 10.472 33.5172 10.192C33.7412 9.904 34.0492 9.684 34.4412 9.532C34.8412 9.372 35.3012 9.292 35.8212 9.292C36.1252 9.292 36.4412 9.316 36.7692 9.364C37.0972 9.412 37.3892 9.484 37.6452 9.58V9.052C37.6452 8.524 37.4892 8.104 37.1772 7.792C36.8652 7.48 36.4332 7.324 35.8812 7.324C35.5452 7.324 35.2132 7.388 34.8852 7.516C34.5652 7.636 34.2292 7.816 33.8772 8.056L33.5652 7.48C33.9732 7.2 34.3732 6.992 34.7652 6.856C35.1572 6.712 35.5572 6.64 35.9652 6.64C36.7332 6.64 37.3412 6.86 37.7892 7.3C38.2372 7.74 38.4612 8.348 38.4612 9.124V12.016C38.4612 12.128 38.4852 12.212 38.5332 12.268C38.5812 12.316 38.6572 12.344 38.7612 12.352V13C38.6732 13.008 38.5972 13.016 38.5332 13.024C38.4692 13.032 38.4212 13.032 38.3892 13.024C38.1892 13.016 38.0372 12.952 37.9332 12.832C37.8292 12.712 37.7732 12.584 37.7652 12.448L37.7532 11.992C37.4732 12.352 37.1092 12.632 36.6612 12.832C36.2132 13.024 35.7572 13.12 35.2932 13.12C34.8932 13.12 34.5292 13.036 34.2012 12.868C33.8812 12.692 33.6292 12.46 33.4452 12.172C33.2692 11.876 33.1812 11.552 33.1812 11.2ZM37.3692 11.68C37.4572 11.568 37.5252 11.46 37.5732 11.356C37.6212 11.252 37.6452 11.16 37.6452 11.08V10.168C37.3732 10.064 37.0892 9.984 36.7932 9.928C36.5052 9.872 36.2132 9.844 35.9172 9.844C35.3332 9.844 34.8612 9.96 34.5012 10.192C34.1412 10.424 33.9612 10.74 33.9612 11.14C33.9612 11.372 34.0212 11.592 34.1412 11.8C34.2612 12 34.4372 12.168 34.6692 12.304C34.9012 12.432 35.1732 12.496 35.4852 12.496C35.8772 12.496 36.2412 12.42 36.5772 12.268C36.9212 12.116 37.1852 11.92 37.3692 11.68ZM43.1773 12.7C43.1133 12.724 43.0133 12.768 42.8773 12.832C42.7413 12.896 42.5773 12.952 42.3853 13C42.1933 13.048 41.9853 13.072 41.7613 13.072C41.5293 13.072 41.3093 13.028 41.1013 12.94C40.9013 12.852 40.7413 12.72 40.6213 12.544C40.5013 12.36 40.4413 12.136 40.4413 11.872V7.396H39.5773V6.748H40.4413V4.636H41.2573V6.748H42.6973V7.396H41.2573V11.644C41.2733 11.868 41.3533 12.036 41.4973 12.148C41.6493 12.26 41.8213 12.316 42.0133 12.316C42.2373 12.316 42.4413 12.28 42.6253 12.208C42.8093 12.128 42.9213 12.072 42.9613 12.04L43.1773 12.7ZM49.4529 13H48.6369V9.508C48.6369 8.804 48.5129 8.276 48.2649 7.924C48.0169 7.564 47.6609 7.384 47.1969 7.384C46.8929 7.384 46.5889 7.464 46.2849 7.624C45.9889 7.776 45.7249 7.988 45.4929 8.26C45.2689 8.524 45.1089 8.828 45.0129 9.172V13H44.1969V4.24H45.0129V8.164C45.2609 7.7 45.6049 7.332 46.0449 7.06C46.4929 6.78 46.9689 6.64 47.4729 6.64C47.8329 6.64 48.1369 6.704 48.3849 6.832C48.6409 6.96 48.8449 7.148 48.9969 7.396C49.1569 7.636 49.2729 7.92 49.3449 8.248C49.4169 8.568 49.4529 8.932 49.4529 9.34V13ZM53.893 13.12C53.445 13.12 53.029 13.036 52.645 12.868C52.261 12.692 51.929 12.456 51.649 12.16C51.369 11.856 51.149 11.508 50.989 11.116C50.837 10.724 50.761 10.304 50.761 9.856C50.761 9.272 50.893 8.736 51.157 8.248C51.429 7.76 51.801 7.372 52.273 7.084C52.745 6.788 53.281 6.64 53.881 6.64C54.497 6.64 55.033 6.788 55.489 7.084C55.953 7.38 56.317 7.772 56.581 8.26C56.845 8.74 56.977 9.268 56.977 9.844C56.977 9.908 56.977 9.972 56.977 10.036C56.977 10.092 56.973 10.136 56.965 10.168H51.613C51.653 10.616 51.777 11.016 51.985 11.368C52.201 11.712 52.477 11.988 52.813 12.196C53.157 12.396 53.529 12.496 53.929 12.496C54.337 12.496 54.721 12.392 55.081 12.184C55.449 11.976 55.705 11.704 55.849 11.368L56.557 11.56C56.429 11.856 56.233 12.124 55.969 12.364C55.705 12.604 55.393 12.792 55.033 12.928C54.681 13.056 54.301 13.12 53.893 13.12ZM51.589 9.58H56.209C56.177 9.124 56.053 8.724 55.837 8.38C55.629 8.036 55.353 7.768 55.009 7.576C54.673 7.376 54.301 7.276 53.893 7.276C53.485 7.276 53.113 7.376 52.777 7.576C52.441 7.768 52.165 8.04 51.949 8.392C51.741 8.736 51.621 9.132 51.589 9.58ZM61.3559 7.468C60.8119 7.484 60.3319 7.636 59.9159 7.924C59.5079 8.212 59.2199 8.608 59.0519 9.112V13H58.2359V6.748H59.0039V8.248C59.2199 7.808 59.5039 7.452 59.8559 7.18C60.2159 6.908 60.5959 6.756 60.9959 6.724C61.0759 6.716 61.1439 6.712 61.1999 6.712C61.2639 6.712 61.3159 6.716 61.3559 6.724V7.468Z" fill="currentColor"/>
<path d="M62.96 13V4.48H64.304V13H62.96ZM71.6895 13H70.3695V9.484C70.3695 8.9 70.2735 8.472 70.0815 8.2C69.8975 7.928 69.6215 7.792 69.2535 7.792C68.9975 7.792 68.7415 7.856 68.4855 7.984C68.2375 8.112 68.0135 8.288 67.8135 8.512C67.6135 8.728 67.4695 8.98 67.3815 9.268V13H66.0615V6.724H67.2615V7.984C67.4215 7.704 67.6295 7.464 67.8855 7.264C68.1495 7.056 68.4455 6.896 68.7735 6.784C69.1015 6.672 69.4495 6.616 69.8175 6.616C70.1935 6.616 70.5015 6.684 70.7415 6.82C70.9895 6.956 71.1815 7.144 71.3175 7.384C71.4615 7.616 71.5575 7.888 71.6055 8.2C71.6615 8.504 71.6895 8.828 71.6895 9.172V13ZM75.4537 13.12C74.9257 13.12 74.4257 13.036 73.9537 12.868C73.4817 12.692 73.0777 12.432 72.7417 12.088L73.2337 11.2C73.5937 11.52 73.9537 11.752 74.3137 11.896C74.6817 12.04 75.0457 12.112 75.4057 12.112C75.7737 12.112 76.0737 12.044 76.3057 11.908C76.5377 11.764 76.6537 11.556 76.6537 11.284C76.6537 11.084 76.5937 10.936 76.4737 10.84C76.3537 10.744 76.1777 10.66 75.9457 10.588C75.7217 10.516 75.4497 10.436 75.1297 10.348C74.6817 10.212 74.3057 10.072 74.0017 9.928C73.6977 9.776 73.4697 9.592 73.3177 9.376C73.1657 9.16 73.0897 8.884 73.0897 8.548C73.0897 8.14 73.1937 7.792 73.4017 7.504C73.6097 7.216 73.8977 6.996 74.2657 6.844C74.6417 6.692 75.0737 6.616 75.5617 6.616C76.0177 6.616 76.4377 6.688 76.8217 6.832C77.2137 6.968 77.5577 7.184 77.8537 7.48L77.2897 8.356C77.0097 8.1 76.7217 7.912 76.4257 7.792C76.1377 7.672 75.8257 7.612 75.4897 7.612C75.2977 7.612 75.1137 7.636 74.9377 7.684C74.7617 7.724 74.6137 7.804 74.4937 7.924C74.3817 8.036 74.3257 8.196 74.3257 8.404C74.3257 8.572 74.3737 8.708 74.4697 8.812C74.5657 8.916 74.7097 9.004 74.9017 9.076C75.0937 9.148 75.3297 9.228 75.6097 9.316C76.0977 9.46 76.5137 9.604 76.8577 9.748C77.2017 9.884 77.4657 10.064 77.6497 10.288C77.8417 10.504 77.9377 10.804 77.9377 11.188C77.9377 11.796 77.7097 12.272 77.2537 12.616C76.8057 12.952 76.2057 13.12 75.4537 13.12ZM79.1162 13V6.724H80.4362V13H79.1162ZM79.1162 5.692V4.24H80.4362V5.692H79.1162ZM84.5065 13.06C84.0825 13.06 83.6945 12.976 83.3425 12.808C82.9905 12.632 82.6865 12.396 82.4305 12.1C82.1825 11.804 81.9865 11.464 81.8425 11.08C81.7065 10.696 81.6385 10.292 81.6385 9.868C81.6385 9.42 81.7105 9 81.8545 8.608C81.9985 8.216 82.1985 7.872 82.4545 7.576C82.7185 7.272 83.0265 7.036 83.3785 6.868C83.7305 6.7 84.1225 6.616 84.5545 6.616C85.0585 6.616 85.4985 6.736 85.8745 6.976C86.2585 7.216 86.5745 7.528 86.8225 7.912V6.724H87.9865V12.82C87.9865 13.428 87.8385 13.944 87.5425 14.368C87.2545 14.792 86.8585 15.116 86.3545 15.34C85.8505 15.564 85.2825 15.676 84.6505 15.676C83.9545 15.676 83.3785 15.556 82.9225 15.316C82.4665 15.076 82.0785 14.748 81.7585 14.332L82.5025 13.636C82.7425 13.972 83.0505 14.228 83.4265 14.404C83.8105 14.58 84.2185 14.668 84.6505 14.668C85.0105 14.668 85.3425 14.6 85.6465 14.464C85.9585 14.336 86.2065 14.132 86.3905 13.852C86.5745 13.58 86.6665 13.236 86.6665 12.82V11.86C86.4425 12.236 86.1345 12.532 85.7425 12.748C85.3505 12.956 84.9385 13.06 84.5065 13.06ZM84.9385 11.992C85.1385 11.992 85.3305 11.96 85.5145 11.896C85.6985 11.824 85.8665 11.732 86.0185 11.62C86.1785 11.5 86.3145 11.368 86.4265 11.224C86.5385 11.072 86.6185 10.912 86.6665 10.744V9.1C86.5625 8.828 86.4145 8.592 86.2225 8.392C86.0305 8.184 85.8145 8.024 85.5745 7.912C85.3345 7.8 85.0905 7.744 84.8425 7.744C84.5545 7.744 84.2945 7.808 84.0625 7.936C83.8385 8.056 83.6465 8.22 83.4865 8.428C83.3265 8.628 83.2025 8.856 83.1145 9.112C83.0265 9.368 82.9825 9.632 82.9825 9.904C82.9825 10.192 83.0305 10.46 83.1265 10.708C83.2305 10.956 83.3705 11.18 83.5465 11.38C83.7225 11.572 83.9305 11.724 84.1705 11.836C84.4105 11.94 84.6665 11.992 84.9385 11.992ZM95.1973 13H93.8773V9.484C93.8773 8.916 93.7733 8.492 93.5653 8.212C93.3573 7.932 93.0653 7.792 92.6893 7.792C92.4573 7.792 92.2173 7.856 91.9693 7.984C91.7213 8.112 91.5013 8.288 91.3093 8.512C91.1173 8.728 90.9773 8.98 90.8893 9.268V13H89.5693V4.24H90.8893V7.984C91.1293 7.56 91.4573 7.228 91.8733 6.988C92.2893 6.74 92.7373 6.616 93.2173 6.616C93.6093 6.616 93.9333 6.684 94.1893 6.82C94.4453 6.956 94.6453 7.144 94.7893 7.384C94.9413 7.616 95.0453 7.888 95.1013 8.2C95.1653 8.504 95.1973 8.828 95.1973 9.172V13ZM100.175 12.676C100.063 12.732 99.9226 12.792 99.7546 12.856C99.5866 12.92 99.3946 12.976 99.1786 13.024C98.9706 13.072 98.7546 13.096 98.5306 13.096C98.2586 13.096 98.0066 13.048 97.7746 12.952C97.5426 12.856 97.3546 12.704 97.2106 12.496C97.0746 12.28 97.0066 12.004 97.0066 11.668V7.744H96.1786V6.724H97.0066V4.66H98.3266V6.724H99.6946V7.744H98.3266V11.248C98.3426 11.464 98.4106 11.624 98.5306 11.728C98.6586 11.832 98.8146 11.884 98.9986 11.884C99.1826 11.884 99.3586 11.852 99.5266 11.788C99.6946 11.724 99.8186 11.672 99.8986 11.632L100.175 12.676Z" fill="currentColor"/>
<path d="M7.99998 3.00084V3.66741L8 5.00056L8 5.30303L8 6.00042L7.99998 8.99996L7.98745 11.7037V13.0369L7.99998 14.9991L8 14.9647L5.17854 16.9113C5.03793 17.0082 4.85984 17.0269 4.70361 16.9613C4.54738 16.8957 4.4349 16.7551 4.40365 16.5895L3.78187 13.2181L0.41049 12.5963C0.244889 12.5651 0.104284 12.4526 0.0386691 12.2964C-0.0269462 12.1401 -0.00819907 11.962 0.0886617 11.8214L2.03525 8.99998L0.0886617 6.17852C-0.00819907 6.03791 -0.0269462 5.85981 0.0386691 5.70359C0.104284 5.54736 0.244889 5.43487 0.41049 5.40363L3.78187 4.78185L4.40365 1.41047C4.4349 1.24487 4.54738 1.10427 4.70361 1.03865C4.85984 0.973036 5.03793 0.991783 5.17854 1.08864L8 3.03523L7.99998 3.00084ZM7.99998 8.99996C7.99998 10.656 8 11.9995 8 11.9995C6.34399 11.9995 5.00044 10.656 5.00044 8.99998C5.00044 7.34397 6.34399 6.00042 8 6.00042C8 6.00042 7.99998 7.34395 7.99998 8.99996ZM7.99998 8.99996C7.99998 6.79091 8 5.00056 8 5.00056C5.79095 5.00056 4.00059 6.79093 4.00059 8.99998C4.00059 11.209 5.79095 12.9994 8 12.9994C8 12.9994 7.99998 11.209 7.99998 8.99996Z" fill="#FFD700"/>
<path d="M7.99996 3.05083V3.7174L7.99998 5.05056L7.99998 5.35302L7.99998 6.05041L7.99996 9.04995L7.98743 11.7537V13.0869L7.99996 15.0491L7.99998 15.0147L5.17852 16.9613C5.03792 17.0582 4.85982 17.0769 4.70359 17.0113C4.54736 16.9457 4.43488 16.8051 4.40363 16.6395L3.78185 13.2681L0.410472 12.6463C0.244872 12.6151 0.104267 12.5026 0.0386512 12.3464C-0.0269642 12.1901 -0.00821645 12.012 0.0886443 11.8714L2.03523 9.04997L0.0886443 6.22851C-0.00821645 6.0879 -0.0269642 5.9098 0.0386512 5.75358C0.104267 5.59735 0.244872 5.48487 0.410472 5.45362L3.78185 4.83184L4.40363 1.46046C4.43488 1.29486 4.54736 1.15425 4.70359 1.08864C4.85982 1.02302 5.03792 1.04177 5.17852 1.13863L7.99998 3.08522L7.99996 3.05083ZM7.99996 9.04995C7.99996 10.706 7.99998 12.0495 7.99998 12.0495C6.34398 12.0495 5.00042 10.706 5.00042 9.04997C5.00042 7.39396 6.34398 6.05041 7.99998 6.05041C7.99998 6.05041 7.99996 7.39394 7.99996 9.04995ZM7.99996 9.04995C7.99996 6.8409 7.99998 5.05056 7.99998 5.05056C5.79093 5.05056 4.00057 6.84092 4.00057 9.04997C4.00057 11.259 5.79093 13.0494 7.99998 13.0494C7.99998 13.0494 7.99996 11.259 7.99996 9.04995Z" fill="#FFD700"/>
<rect x="11" width="1" height="18" fill="currentColor"/>
</svg>
