<!-- Generated by IcoMoon.io -->
<svg version="1.1" xmlns="http://www.w3.org/2000/svg" width="1024" height="1024" viewBox="0 0 1024 1024">
<title></title>
<g id="icomoon-ignore">
</g>
<path fill="currentColor" d="M868.876 364.841l-52.48 78.933c22.827 44.56 36.205 97.211 36.205 152.987 0 62.74-16.927 121.527-46.464 172.042l0.873-1.615h-591.36c-28.678-48.909-45.613-107.709-45.613-170.464 0-188.513 152.82-341.333 341.333-341.333 55.666 0 108.219 13.325 154.644 36.96l-1.938-0.895 78.933-52.48c-65.117-42.329-144.775-67.5-230.312-67.5-235.641 0-426.667 191.025-426.667 426.667 0 77.89 20.871 150.905 57.326 213.758l-1.095-2.045c14.943 25.542 42.166 42.472 73.359 42.667h590.961c0.101 0 0.22 0.001 0.339 0.001 31.419 0 58.872-16.98 73.683-42.265l0.218-0.403c35.93-61.191 57.15-134.774 57.15-213.313 0-86.296-25.62-166.609-69.668-233.747l0.997 1.619z"></path>
<path fill="currentColor" d="M451.169 656.681c15.446 15.462 36.792 25.027 60.373 25.027s44.928-9.565 60.373-25.026l0.001-0.001 241.493-362.24-362.24 241.493c-15.462 15.446-25.027 36.792-25.027 60.373s9.565 44.928 25.026 60.373l0.001 0.001z"></path>
</svg>
