<!-- Generated by IcoMoon.io -->
<svg version="1.1" xmlns="http://www.w3.org/2000/svg" width="768" height="768" viewBox="0 0 768 768">
<title></title>
<g id="icomoon-ignore">
</g>
<path fill="currentColor" d="M496 448h-25.28l-8.96-8.64c31.36-36.48 50.24-83.84 50.24-135.36 0-114.88-93.12-208-208-208s-208 93.12-208 208 93.12 208 208 208c51.52 0 98.88-18.88 135.36-50.24l8.64 8.96v25.28l160 159.68 47.68-47.68-159.68-160zM304 448c-79.68 0-144-64.32-144-144s64.32-144 144-144 144 64.32 144 144-64.32 144-144 144z"></path>
</svg>
