<!-- Generated by IcoMoon.io -->
<svg version="1.1" xmlns="http://www.w3.org/2000/svg" width="1024" height="1024" viewBox="0 0 1024 1024">
<title></title>
<g id="icomoon-ignore">
</g>
<path fill="currentColor" d="M288.427 227.84l-76.8-76.373-60.16 60.16 76.373 76.373zM42.667 469.333h128v85.333h-128zM469.333 44.8h85.333v125.867h-85.333zM812.373 151.253l60.075 60.032-76.373 76.373-60.032-60.075zM735.573 796.16l76.373 76.8 60.16-60.16-76.8-76.373zM853.333 469.333h128v85.333h-128zM512 256c-141.227 0-256 114.773-256 256s114.773 256 256 256 256-114.773 256-256-114.773-256-256-256zM512 682.666c-94.293 0-170.667-76.373-170.667-170.667s76.373-170.667 170.667-170.667 170.667 76.373 170.667 170.667-76.373 170.667-170.667 170.667zM469.333 853.333h85.333v125.867h-85.333zM151.467 812.373l60.16 60.16 76.373-76.8-60.16-60.16z"></path>
</svg>
