<!-- Generated by IcoMoon.io -->
<svg version="1.1" xmlns="http://www.w3.org/2000/svg" width="1024" height="1024" viewBox="0 0 1024 1024">
<title></title>
<g id="icomoon-ignore">
</g>
<path fill="currentColor" d="M117.333 279.467q-13.867 0-22.933-9.067t-9.067-22.933v-151.467q0-10.667 7.467-18.133t19.2-7.467 18.667 6.933 6.933 18.667v83.2q77.867-67.2 173.333-101.867t198.933-34.667 200 34.667 175.467 101.867v-82.133q0-11.733 7.467-19.2t19.2-7.467 19.2 7.467 7.467 19.2v150.4q0 13.867-9.067 22.933t-22.933 9.067h-146.133q-10.667 0-18.133-7.467t-7.467-19.2 7.467-18.667 19.2-6.933h101.333q-73.6-64-164.267-100.267t-188.8-36.267q-97.067 0-186.667 36.267t-163.2 100.267h102.4q10.667 0 18.133 6.933t7.467 18.667-6.933 19.2-18.667 7.467zM450.133 981.333q-18.133 0-34.133-6.933t-27.733-18.667l-168.533-168.533q-16-16-19.2-47.467t13.867-54.933q18.133-24.533 42.133-33.067t44.267-3.2l83.2 19.2v-347.733q0-44.8 30.933-75.733t75.733-30.933 75.733 30.933 30.933 75.733v183.467h27.733q5.333 0 9.6 2.133t9.6 4.267l157.867 76.8q25.6 11.733 37.867 37.867t6.933 53.867l-38.4 232.533q-5.333 30.933-29.867 50.667t-55.467 19.733zM441.6 917.333h299.733l45.867-265.6-195.2-97.067h-58.667v-234.667q0-19.2-11.733-30.933t-30.933-11.733-30.933 11.733-11.733 30.933v425.6l-164.267-35.2-24.533 24.533zM741.333 917.333v0z"></path>
</svg>
