<!-- Generated by IcoMoon.io -->
<svg version="1.1" xmlns="http://www.w3.org/2000/svg" width="768" height="768" viewBox="0 0 768 768">
<title></title>
<g id="icomoon-ignore">
</g>
<path fill="currentColor" d="M384 192c121.28 0 229.44 68.16 282.24 176-52.8 107.84-160.96 176-282.24 176s-229.44-68.16-282.24-176c52.8-107.84 160.96-176 282.24-176zM384 128c-160 0-296.64 99.52-352 240 55.36 140.48 192 240 352 240s296.64-99.52 352-240c-55.36-140.48-192-240-352-240zM384 288c44.16 0 80 35.84 80 80s-35.84 80-80 80-80-35.84-80-80 35.84-80 80-80zM384 224c-79.36 0-144 64.64-144 144s64.64 144 144 144 144-64.64 144-144-64.64-144-144-144z"></path>
</svg>
