<!-- Generated by IcoMoon.io -->
<svg version="1.1" xmlns="http://www.w3.org/2000/svg" width="768" height="768" viewBox="0 0 768 768">
<title></title>
<g id="icomoon-ignore">
</g>
<path fill="currentColor" d="M384 64c-170.56 145.6-256 271.36-256 377.6 0 159.36 121.6 262.4 256 262.4s256-103.040 256-262.4c0-106.24-85.44-232-256-377.6zM384 640c-107.2 0-192-82.24-192-198.4 0-74.88 62.4-174.080 192-292.48 129.6 118.4 192 217.28 192 292.48 0 116.16-84.8 198.4-192 198.4zM250.56 448c11.84 0 21.44 8.32 23.68 19.84 13.12 71.040 72.96 95.36 116.48 91.84 13.76-0.64 25.28 10.24 25.28 24 0 12.8-10.24 23.36-23.040 24-68.16 4.16-147.84-34.88-166.080-131.84-2.56-14.4 8.96-27.84 23.68-27.84z"></path>
</svg>
