<!-- Generated by IcoMoon.io -->
<svg version="1.1" xmlns="http://www.w3.org/2000/svg" width="1024" height="1024" viewBox="0 0 1024 1024">
<title></title>
<g id="icomoon-ignore">
</g>
<path fill="currentColor" d="M298.666 469.333h85.333v85.333h-85.333v-85.333zM895.999 256v597.333c0 46.933-38.4 85.333-85.333 85.333h-597.333c-47.36 0-85.333-38.4-85.333-85.333l0.427-597.333c0-46.933 37.547-85.333 84.907-85.333h42.667v-85.333h85.333v85.333h341.333v-85.333h85.333v85.333h42.667c46.933 0 85.333 38.4 85.333 85.333zM213.332 341.333h597.333v-85.333h-597.333v85.333zM810.666 853.333v-426.667h-597.333v426.667h597.333zM639.999 554.667h85.333v-85.333h-85.333v85.333zM469.332 554.667h85.333v-85.333h-85.333v85.333z"></path>
</svg>
