<!-- Generated by IcoMoon.io -->
<svg version="1.1" xmlns="http://www.w3.org/2000/svg" width="768" height="768" viewBox="0 0 768 768">
<title></title>
<g id="icomoon-ignore">
</g>
<path fill="currentColor" d="M464 544c0 52.8-43.2 96-96 96s-96-43.2-96-96h64c0 17.6 14.4 32 32 32s32-14.4 32-32-14.4-32-32-32h-304v-64h304c52.8 0 96 43.2 96 96zM608 208c0-61.76-50.24-112-112-112s-112 50.24-112 112h64c0-26.56 21.44-48 48-48s48 21.44 48 48-21.44 48-48 48h-432v64h432c61.76 0 112-50.24 112-112zM592 352h-528v64h528c26.56 0 48 21.44 48 48s-21.44 48-48 48v64c61.76 0 112-50.24 112-112s-50.24-112-112-112z"></path>
</svg>
